<svg xmlns="http://www.w3.org/2000/svg" viewBox="0 0 1020 248" width="1020" height="248"><style>tspan { white-space:pre }</style><path fill="#ffffff" d="M82.13 228.38L76.13 246Q32 233.63 31.13 189.63L31.13 163Q31.13 134.88 7 134.88L7 112.63Q31.13 112.63 31.13 84.38L31.13 57.88Q31.5 35.38 42.75 21.5Q54.13 7.63 76.13 1.38L82.13 18.88Q60.5 25.88 59.75 57.13L59.75 84.13Q59.75 112.25 38.13 123.63Q59.75 135.13 59.75 163.5L59.75 190.13Q60.5 221.38 82.13 228.38ZM192.13 65.75L220.25 159.13L241.75 65.75L271.38 65.75L234.5 201L209.5 201L180.5 108.13L152 201L127 201L90 65.75L119.63 65.75L141.5 158.13L169.25 65.75L192.13 65.75ZM403.5 201L372.5 201Q370.5 197.13 369 188.38Q354.5 203.5 333.5 203.5Q313.13 203.5 300.25 191.88Q287.38 180.25 287.38 163.13Q287.38 141.5 303.38 130Q319.5 118.38 349.38 118.38L368 118.38L368 109.5Q368 99 362.13 92.75Q356.25 86.38 344.25 86.38Q333.88 86.38 327.25 91.63Q320.63 96.75 320.63 104.75L290.25 104.75Q290.25 93.63 297.63 84Q305 74.25 317.63 68.75Q330.38 63.25 346 63.25Q369.75 63.25 383.88 75.25Q398 87.13 398.38 108.75L398.38 169.75Q398.38 188 403.5 198.88L403.5 201ZM339.13 179.13Q348.13 179.13 356 174.75Q364 170.38 368 163L368 137.5L351.63 137.5Q334.75 137.5 326.25 143.38Q317.75 149.25 317.75 160Q317.75 168.75 323.5 174Q329.38 179.13 339.13 179.13ZM485.75 179.25Q497.13 179.25 504.63 172.63Q512.13 166 512.63 156.25L541.25 156.25Q540.75 168.88 533.38 179.88Q526 190.75 513.38 197.13Q500.75 203.5 486.13 203.5Q457.75 203.5 441.13 185.13Q424.5 166.75 424.5 134.38L424.5 131.25Q424.5 100.38 441 81.88Q457.5 63.25 486 63.25Q510.13 63.25 525.25 77.38Q540.5 91.38 541.25 114.25L512.63 114.25Q512.13 102.63 504.63 95.13Q497.25 87.63 485.75 87.63Q471 87.63 463 98.38Q455 109 454.88 130.75L454.88 135.63Q454.88 157.63 462.75 168.5Q470.75 179.25 485.75 179.25ZM619.75 179.25Q631.13 179.25 638.63 172.63Q646.13 166 646.63 156.25L675.25 156.25Q674.75 168.88 667.38 179.88Q660 190.75 647.38 197.13Q634.75 203.5 620.13 203.5Q591.75 203.5 575.13 185.13Q558.5 166.75 558.5 134.38L558.5 131.25Q558.5 100.38 575 81.88Q591.5 63.25 620 63.25Q644.13 63.25 659.25 77.38Q674.5 91.38 675.25 114.25L646.63 114.25Q646.13 102.63 638.63 95.13Q631.25 87.63 619.75 87.63Q605 87.63 597 98.38Q589 109 588.88 130.75L588.88 135.63Q588.88 157.63 596.75 168.5Q604.75 179.25 619.75 179.25ZM974.63 246L968.63 228.38Q990.63 221.25 991.13 189.38L991.13 163.38Q991.13 134.5 1013.88 123.75Q991.13 113 991.13 83.75L991.13 57.88Q990.63 26 968.63 18.88L974.63 1.38Q997.38 7.75 1008.5 22.13Q1019.63 36.38 1019.63 59.5L1019.63 84.5Q1019.63 112.63 1043.88 112.63L1043.88 134.88Q1019.63 134.88 1019.63 163L1019.63 187.63Q1019.63 211 1008.38 225.38Q997.25 239.63 974.63 246Z" /><path fill="#fec7cc" d="M717.13 169Q725.63 169 730.25 173.88Q734.88 178.63 734.88 185.88Q734.88 193 730.25 197.75Q725.63 202.38 717.13 202.38Q709 202.38 704.25 197.75Q699.5 193.13 699.5 185.88Q699.5 178.63 704.13 173.88Q708.75 169 717.13 169ZM802 65.75L802 201L771.63 201L771.63 65.75L802 65.75ZM769.75 30.63Q769.75 23.63 774.13 19Q778.63 14.38 786.88 14.38Q795.13 14.38 799.63 19Q804.13 23.63 804.13 30.63Q804.13 37.5 799.63 42.13Q795.13 46.63 786.88 46.63Q778.63 46.63 774.13 42.13Q769.75 37.5 769.75 30.63ZM829.38 133.63L829.38 132.13Q829.38 112.25 837.25 96.38Q845.13 80.38 859.38 71.88Q873.63 63.25 892.13 63.25Q919.5 63.25 936.5 80.88Q953.63 98.5 955 127.63L955.13 134.75Q955.13 154.75 947.38 170.5Q939.75 186.25 925.38 194.88Q911.13 203.5 892.38 203.5Q863.75 203.5 846.5 184.5Q829.38 165.38 829.38 133.63ZM859.75 134.75Q859.75 155.63 868.38 167.5Q877 179.25 892.38 179.25Q907.75 179.25 916.25 167.25Q924.88 155.25 924.88 132.13Q924.88 111.63 916 99.63Q907.25 87.63 892.13 87.63Q877.25 87.63 868.5 99.5Q859.75 111.25 859.75 134.75Z" /></svg>