<svg xmlns="http://www.w3.org/2000/svg" viewBox="0 0 1020 248" width="1020" height="248"><style>tspan { white-space:pre }</style><path fill="#ffffff" d="M59.17 227.5L52.92 244.88Q33.17 238.5 23.42 223.5Q13.67 208.5 16.04 186.75L19.54 161.25Q20.17 155.63 19.67 150.75Q18.04 135.5 1.29 134.13L3.42 111.88Q28.29 110.63 32.17 83L36.04 55Q43.17 13 87.54 0L91.92 17.88Q67.79 26.63 63.42 59.38L59.79 86.63Q55.67 111.25 32.54 123.25Q41.67 130.13 45.04 140.25Q48.42 150.38 47.29 161.38L43.54 190.13L43.17 199Q42.79 220.25 59.17 227.5ZM192.92 64.75L203.92 157.88L241.04 64.75L270.79 64.75L211.54 200L187.17 200L175.29 107.5L131.54 200L107.04 200L94.67 64.75L122.67 64.75L127.79 156.5L170.54 64.75L192.92 64.75ZM377.29 200L347.92 200Q346.42 195 346.67 187.38Q329.92 203 310.54 202.5Q292.92 202.25 281.29 191.25Q269.79 180.13 270.54 163.13Q271.54 141.75 289.04 129.5Q306.54 117.25 336.04 117.25L355.29 117.5L357.04 108.25Q357.79 103.38 357.04 99.13Q354.54 85.63 339.17 85.25Q329.67 85 322.42 90.13Q315.29 95.13 313.67 103.63L284.04 103.88Q284.92 91.38 292.92 82Q300.92 72.5 314.17 67.25Q327.42 62 342.17 62.25Q364.29 62.75 376.67 75.63Q389.04 88.38 386.92 108.75L376.54 172.13L375.54 183.38Q375.17 190.75 377.42 197.75L377.29 200ZM317.42 178.25Q326.79 178.5 334.79 174Q342.79 169.38 348.42 162.13L353.04 136.5L338.92 136.38Q322.17 136.38 312.17 142.75Q302.17 149 300.79 160Q299.79 168.38 304.42 173.25Q309.17 178 317.42 178.25ZM462.17 178.38Q472.79 178.63 480.92 172.25Q489.17 165.75 491.42 155.38L519.42 155.25Q518.04 168.63 509.67 179.63Q501.42 190.63 488.42 196.75Q475.42 202.88 461.29 202.5Q443.92 202.25 431.67 193.5Q419.42 184.75 413.79 169.38Q408.17 153.88 410.04 134.88L410.42 130.5Q412.54 110.88 421.79 95Q431.17 79 445.92 70.38Q460.67 61.75 478.67 62.25Q500.67 62.75 513.79 76.88Q526.92 90.88 526.92 113.38L499.17 113.38Q499.17 101.75 493.42 94.38Q487.79 87 477.04 86.5Q459.67 86 449.67 101.25Q439.67 116.5 438.92 144.25Q438.04 177.88 462.17 178.38ZM593.42 178.38Q604.04 178.63 612.17 172.25Q620.42 165.75 622.67 155.38L650.67 155.25Q649.29 168.63 640.92 179.63Q632.67 190.63 619.67 196.75Q606.67 202.88 592.54 202.5Q575.17 202.25 562.92 193.5Q550.67 184.75 545.04 169.38Q539.42 153.88 541.29 134.88L541.67 130.5Q543.79 110.88 553.04 95Q562.42 79 577.17 70.38Q591.92 61.75 609.92 62.25Q631.92 62.75 645.04 76.88Q658.17 90.88 658.17 113.38L630.42 113.38Q630.42 101.75 624.67 94.38Q619.04 87 608.29 86.5Q590.92 86 580.92 101.25Q570.92 116.5 570.17 144.25Q569.29 177.88 593.42 178.38ZM933.04 245.38L928.67 227.38Q951.67 219.38 956.79 188.38L961.04 157.88Q965.42 133.5 989.17 122.13Q975.17 112.88 973.42 94.88Q972.79 89.5 973.42 83.88L977.17 55.13L977.67 46.13Q977.67 24.88 961.54 17.75L968.42 0.63Q988.79 7.38 997.79 22.5Q1006.79 37.5 1004.54 58.5L1001.04 84Q1000.42 89.75 1000.92 94.5Q1002.54 110 1019.42 111.38L1017.17 133.63Q992.17 134.88 988.42 162.25L984.54 190.13Q977.42 232.63 933.04 245.38Z" /><path fill="#ecb7b7" d="M669.67 185.38Q669.67 177.75 674.42 173Q679.29 168.13 686.79 167.88Q694.17 167.63 699.04 172.38Q704.04 177 704.04 184.38Q704.04 191.63 699.29 196.5Q694.54 201.25 686.92 201.5Q679.54 201.75 674.54 197.13Q669.67 192.5 669.67 185.38ZM791.29 64.75L767.79 200L738.17 200L761.67 64.75L791.29 64.75ZM765.92 30.13Q765.92 23.25 770.42 18.38Q774.92 13.5 782.54 13.25Q789.79 13 794.54 17.75Q799.42 22.38 799.42 29.13Q799.42 36.25 794.67 40.88Q790.04 45.5 782.79 45.75Q775.67 46 770.79 41.5Q765.92 36.88 765.92 30.13ZM807.67 134.5L808.04 131.88Q810.17 112 819.67 95.75Q829.29 79.5 844.29 70.63Q859.29 61.75 877.54 62.25Q894.92 62.5 907.54 71.5Q920.17 80.5 925.92 96.13Q931.79 111.75 930.04 130.88Q928.04 152.38 918.29 168.88Q908.67 185.38 893.54 194.25Q878.54 203 860.17 202.5Q842.92 202.25 830.29 193.38Q817.79 184.38 811.92 168.88Q806.04 153.25 807.67 134.5ZM837.17 149Q837.79 162.13 844.04 170.13Q850.42 178 861.67 178.38Q876.92 178.75 887.17 166.63Q897.54 154.5 900.17 133.5L900.92 121.25Q900.92 105.25 894.54 96.13Q888.17 87 876.04 86.5Q857.04 86 846.04 105.13Q839.42 116.75 837.67 131.88Q836.67 142.38 837.17 149Z" /></svg>