<svg xmlns="http://www.w3.org/2000/svg" viewBox="0 0 1159 387" width="1159" height="387">
	<style>
		tspan { white-space:pre }
	</style>
	<path fill="#ffffff" d="M90.8 355.97L81.04 383.12Q50.18 373.16 34.95 349.72Q19.71 326.28 23.42 292.3L28.89 252.45Q29.87 243.66 29.09 236.05Q26.55 212.22 0.37 210.07L3.7 175.3Q42.56 173.35 48.62 130.19L54.67 86.44Q65.8 20.81 135.14 0.5L141.98 28.43Q104.28 42.1 97.45 93.27L91.78 135.85Q85.34 174.33 49.2 193.08Q63.46 203.82 68.73 219.64Q74.01 235.46 72.25 252.65L66.39 297.57L65.8 311.44Q65.22 344.64 90.8 355.97ZM299.79 101.67L316.98 247.18L374.98 101.67L421.47 101.67L328.89 313L290.8 313L272.25 168.47L203.89 313L165.61 313L146.27 101.67L190.02 101.67L198.03 245.03L264.83 101.67L299.79 101.67ZM587.87 313L541.98 313Q539.63 305.19 540.02 293.27Q513.85 317.69 483.58 316.91Q456.04 316.52 437.87 299.33Q419.91 281.95 421.08 255.38Q422.64 221.98 449.98 202.84Q477.33 183.7 523.42 183.7L553.5 184.09L556.23 169.64Q557.41 162.02 556.23 155.38Q552.33 134.29 528.3 133.7Q513.46 133.31 502.13 141.32Q491 149.13 488.46 162.41L442.17 162.8Q443.54 143.27 456.04 128.63Q468.54 113.78 489.24 105.58Q509.95 97.38 532.99 97.77Q567.56 98.55 586.9 118.66Q606.23 138.59 602.91 170.42L586.7 269.45L585.14 287.02Q584.55 298.55 588.07 309.48L587.87 313ZM494.32 279.02Q508.97 279.41 521.47 272.38Q533.97 265.15 542.76 253.82L549.98 213.78L527.91 213.59Q501.74 213.59 486.12 223.55Q470.49 233.31 468.34 250.5Q466.78 263.59 474.01 271.2Q481.43 278.63 494.32 279.02ZM720.49 279.21Q737.09 279.6 749.79 269.64Q762.68 259.48 766.2 243.27L809.95 243.08Q807.8 263.98 794.71 281.16Q781.82 298.35 761.51 307.92Q741.2 317.49 719.12 316.91Q691.98 316.52 672.84 302.84Q653.7 289.17 644.91 265.15Q636.12 240.93 639.05 211.24L639.63 204.41Q642.95 173.74 657.41 148.94Q672.05 123.94 695.1 110.46Q718.15 96.98 746.27 97.77Q780.65 98.55 801.16 120.62Q821.66 142.49 821.66 177.65L778.3 177.65Q778.3 159.48 769.32 147.96Q760.53 136.44 743.73 135.66Q716.59 134.88 700.96 158.7Q685.34 182.53 684.16 225.89Q682.8 278.43 720.49 279.21ZM925.57 279.21Q942.17 279.6 954.87 269.64Q967.76 259.48 971.27 243.27L1015.02 243.08Q1012.87 263.98 999.79 281.16Q986.9 298.35 966.59 307.92Q946.27 317.49 924.2 316.91Q897.05 316.52 877.91 302.84Q858.77 289.17 849.98 265.15Q841.2 240.93 844.12 211.24L844.71 204.41Q848.03 173.74 862.48 148.94Q877.13 123.94 900.18 110.46Q923.23 96.98 951.35 97.77Q985.73 98.55 1006.23 120.62Q1026.74 142.49 1026.74 177.65L983.38 177.65Q983.38 159.48 974.4 147.96Q965.61 136.44 948.81 135.66Q921.66 134.88 906.04 158.7Q890.41 182.53 889.24 225.89Q887.87 278.43 925.57 279.21ZM1022.05 383.9L1015.22 355.77Q1051.16 343.27 1059.16 294.84L1065.8 247.18Q1072.64 209.09 1109.75 191.32Q1087.87 176.87 1085.14 148.74Q1084.16 140.34 1085.14 131.55L1091 86.63L1091.78 72.57Q1091.78 39.37 1066.59 28.23L1077.33 1.48Q1109.16 12.02 1123.23 35.66Q1137.29 59.09 1133.77 91.91L1128.3 131.75Q1127.33 140.73 1128.11 148.16Q1130.65 172.38 1157.02 174.52L1153.5 209.29Q1114.44 211.24 1108.58 254.02L1102.52 297.57Q1091.39 363.98 1022.05 383.9Z" />
</svg>