<svg xmlns="http://www.w3.org/2000/svg" viewBox="0 0 1046 248" width="1046" height="248"><style>tspan { white-space:pre }</style><path fill="#ffffff" d="M82.13 228.38L76.13 246Q32 233.63 31.13 189.63L31.13 163Q31.13 134.88 7 134.88L7 112.63Q31.13 112.63 31.13 84.38L31.13 57.88Q31.5 35.38 42.75 21.5Q54.13 7.63 76.13 1.38L82.13 18.88Q60.5 25.88 59.75 57.13L59.75 84.13Q59.75 112.25 38.13 123.63Q59.75 135.13 59.75 163.5L59.75 190.13Q60.5 221.38 82.13 228.38ZM192.13 65.75L220.25 159.13L241.75 65.75L271.38 65.75L234.5 201L209.5 201L180.5 108.13L152 201L127 201L90 65.75L119.63 65.75L141.5 158.13L169.25 65.75L192.13 65.75ZM403.5 201L372.5 201Q370.5 197.13 369 188.38Q354.5 203.5 333.5 203.5Q313.13 203.5 300.25 191.88Q287.38 180.25 287.38 163.13Q287.38 141.5 303.38 130Q319.5 118.38 349.38 118.38L368 118.38L368 109.5Q368 99 362.13 92.75Q356.25 86.38 344.25 86.38Q333.88 86.38 327.25 91.63Q320.63 96.75 320.63 104.75L290.25 104.75Q290.25 93.63 297.63 84Q305 74.25 317.63 68.75Q330.38 63.25 346 63.25Q369.75 63.25 383.88 75.25Q398 87.13 398.38 108.75L398.38 169.75Q398.38 188 403.5 198.88L403.5 201ZM339.13 179.13Q348.13 179.13 356 174.75Q364 170.38 368 163L368 137.5L351.63 137.5Q334.75 137.5 326.25 143.38Q317.75 149.25 317.75 160Q317.75 168.75 323.5 174Q329.38 179.13 339.13 179.13ZM485.75 179.25Q497.13 179.25 504.63 172.63Q512.13 166 512.63 156.25L541.25 156.25Q540.75 168.88 533.38 179.88Q526 190.75 513.38 197.13Q500.75 203.5 486.13 203.5Q457.75 203.5 441.13 185.13Q424.5 166.75 424.5 134.38L424.5 131.25Q424.5 100.38 441 81.88Q457.5 63.25 486 63.25Q510.13 63.25 525.25 77.38Q540.5 91.38 541.25 114.25L512.63 114.25Q512.13 102.63 504.63 95.13Q497.25 87.63 485.75 87.63Q471 87.63 463 98.38Q455 109 454.88 130.75L454.88 135.63Q454.88 157.63 462.75 168.5Q470.75 179.25 485.75 179.25ZM619.75 179.25Q631.13 179.25 638.63 172.63Q646.13 166 646.63 156.25L675.25 156.25Q674.75 168.88 667.38 179.88Q660 190.75 647.38 197.13Q634.75 203.5 620.13 203.5Q591.75 203.5 575.13 185.13Q558.5 166.75 558.5 134.38L558.5 131.25Q558.5 100.38 575 81.88Q591.5 63.25 620 63.25Q644.13 63.25 659.25 77.38Q674.5 91.38 675.25 114.25L646.63 114.25Q646.13 102.63 638.63 95.13Q631.25 87.63 619.75 87.63Q605 87.63 597 98.38Q589 109 588.88 130.75L588.88 135.63Q588.88 157.63 596.75 168.5Q604.75 179.25 619.75 179.25ZM692 246L686 228.38Q708 221.25 708.5 189.38L708.5 163.38Q708.5 134.5 731.25 123.75Q708.5 113 708.5 83.75L708.5 57.88Q708 26 686 18.88L692 1.38Q714.75 7.75 725.88 22.13Q737 36.38 737 59.5L737 84.5Q737 112.63 761.25 112.63L761.25 134.88Q737 134.88 737 163L737 187.63Q737 211 725.75 225.38Q714.63 239.63 692 246Z" /><path fill="#fec7cc" d="M803 169Q811.5 169 816.13 173.88Q820.75 178.63 820.75 185.88Q820.75 193 816.13 197.75Q811.5 202.38 803 202.38Q794.88 202.38 790.13 197.75Q785.38 193.13 785.38 185.88Q785.38 178.63 790 173.88Q794.63 169 803 169ZM887.88 65.75L887.88 201L857.5 201L857.5 65.75L887.88 65.75ZM855.63 30.63Q855.63 23.63 860 19Q864.5 14.38 872.75 14.38Q881 14.38 885.5 19Q890 23.63 890 30.63Q890 37.5 885.5 42.13Q881 46.63 872.75 46.63Q864.5 46.63 860 42.13Q855.63 37.5 855.63 30.63ZM915.25 133.63L915.25 132.13Q915.25 112.25 923.13 96.38Q931 80.38 945.25 71.88Q959.5 63.25 978 63.25Q1005.38 63.25 1022.38 80.88Q1039.5 98.5 1040.88 127.63L1041 134.75Q1041 154.75 1033.25 170.5Q1025.63 186.25 1011.25 194.88Q997 203.5 978.25 203.5Q949.63 203.5 932.38 184.5Q915.25 165.38 915.25 133.63ZM945.63 134.75Q945.63 155.63 954.25 167.5Q962.88 179.25 978.25 179.25Q993.63 179.25 1002.13 167.25Q1010.75 155.25 1010.75 132.13Q1010.75 111.63 1001.88 99.63Q993.13 87.63 978 87.63Q963.13 87.63 954.38 99.5Q945.63 111.25 945.63 134.75Z" /></svg>